<svg class="cartesian" width="200" height="200"><circle cx="99.94381586435625" cy="99.92681174132998" r="2" style="fill: black; stroke: none"></circle><circle cx="101.33580427026372" cy="101.50149400212976" r="2" style="fill: black; stroke: none"></circle><circle cx="98.1275985856338" cy="98.35450192821624" r="2" style="fill: black; stroke: none"></circle><circle cx="97.46353469144199" cy="101.27889085571043" r="2" style="fill: black; stroke: none"></circle><circle cx="100.40860348091387" cy="97.0251306087868" r="2" style="fill: black; stroke: none"></circle><circle cx="98.10298444359753" cy="103.82889274111152" r="2" style="fill: black; stroke: none"></circle><circle cx="103.92082976295846" cy="102.1980379365164" r="2" style="fill: black; stroke: none"></circle><circle cx="97.85056152896094" cy="96.00782399885661" r="2" style="fill: black; stroke: none"></circle><circle cx="95.45955296052368" cy="99.09058710790775" r="2" style="fill: black; stroke: none"></circle><circle cx="100.98949419622194" cy="104.65261329718165" r="2" style="fill: black; stroke: none"></circle><circle cx="94.66046531126618" cy="101.70107257445753" r="2" style="fill: black; stroke: none"></circle><circle cx="104.775403915695" cy="96.49255013362608" r="2" style="fill: black; stroke: none"></circle><circle cx="99.2216687955451" cy="93.60235989669378" r="2" style="fill: black; stroke: none"></circle><circle cx="106.59318452235628" cy="99.01485625756368" r="2" style="fill: black; stroke: none"></circle><circle cx="95.78829621480732" cy="105.39000731077391" r="2" style="fill: black; stroke: none"></circle><circle cx="106.4834529569968" cy="102.449290463055" r="2" style="fill: black; stroke: none"></circle><circle cx="104.38438016001241" cy="105.83597953867726" r="2" style="fill: black; stroke: none"></circle><circle cx="96.1286872246981" cy="93.77072352869776" r="2" style="fill: black; stroke: none"></circle><circle cx="92.85247655615152" cy="98.3536891177064" r="2" style="fill: black; stroke: none"></circle><circle cx="99.42749881955028" cy="107.86037908994143" r="2" style="fill: black; stroke: none"></circle><circle cx="91.90859255366884" cy="101.18406703976422" r="2" style="fill: black; stroke: none"></circle><circle cx="104.3534161362073" cy="92.26544145437103" r="2" style="fill: black; stroke: none"></circle><circle cx="92.83811498218111" cy="105.58287347595576" r="2" style="fill: black; stroke: none"></circle><circle cx="100.04697191983996" cy="90.71883701889799" r="2" style="fill: black; stroke: none"></circle><circle cx="109.37290626132223" cy="99.74003520549913" r="2" style="fill: black; stroke: none"></circle><circle cx="107.92536759819653" cy="94.70968354513825" r="2" style="fill: black; stroke: none"></circle><circle cx="102.31763790231582" cy="109.35408205708525" r="2" style="fill: black; stroke: none"></circle><circle cx="108.29728642717787" cy="105.0825112092531" r="2" style="fill: black; stroke: none"></circle><circle cx="91.35793901053843" cy="95.3674077625266" r="2" style="fill: black; stroke: none"></circle><circle cx="96.01422892596432" cy="109.17098971239778" r="2" style="fill: black; stroke: none"></circle><circle cx="89.80726046761036" cy="98.97821203386556" r="2" style="fill: black; stroke: none"></circle><circle cx="96.51389244796009" cy="90.3204647516598" r="2" style="fill: black; stroke: none"></circle><circle cx="106.29077466781136" cy="108.4351009237296" r="2" style="fill: black; stroke: none"></circle><circle cx="90.02459191276549" cy="103.84480914384962" r="2" style="fill: black; stroke: none"></circle><circle cx="98.71393271695862" cy="111.47545220738778" r="2" style="fill: black; stroke: none"></circle><circle cx="111.37383081818273" cy="103.74907007571288" r="2" style="fill: black; stroke: none"></circle><circle cx="111.73534234388225" cy="97.35839481115684" r="2" style="fill: black; stroke: none"></circle><circle cx="107.84250912968274" cy="90.82195402771038" r="2" style="fill: black; stroke: none"></circle><circle cx="99.0256085194567" cy="87.66296688328443" r="2" style="fill: black; stroke: none"></circle><circle cx="92.40102329236251" cy="110.53100783182528" r="2" style="fill: black; stroke: none"></circle><circle cx="87.39386207445298" cy="96.74179079582797" r="2" style="fill: black; stroke: none"></circle><circle cx="104.99027859790328" cy="112.17769135434001" r="2" style="fill: black; stroke: none"></circle><circle cx="86.79027733529081" cy="101.60255911715113" r="2" style="fill: black; stroke: none"></circle><circle cx="111.30829772532482" cy="92.90861579469929" r="2" style="fill: black; stroke: none"></circle><circle cx="91.43384201378628" cy="89.46315139401271" r="2" style="fill: black; stroke: none"></circle><circle cx="88.30997656235391" cy="106.99332441284157" r="2" style="fill: black; stroke: none"></circle><circle cx="102.79898026192615" cy="86.6211429394764" r="2" style="fill: black; stroke: none"></circle><circle cx="94.51464930870969" cy="87.03321928027621" r="2" style="fill: black; stroke: none"></circle><circle cx="111.91515052921122" cy="107.65910895211815" r="2" style="fill: black; stroke: none"></circle><circle cx="95.1136104151241" cy="113.32012390495154" r="2" style="fill: black; stroke: none"></circle><circle cx="114.20779511897052" cy="100.22977459496394" r="2" style="fill: black; stroke: none"></circle><circle cx="100.86852126617029" cy="114.4216020768464" r="2" style="fill: black; stroke: none"></circle><circle cx="87.45776933210787" cy="91.84904665540185" r="2" style="fill: black; stroke: none"></circle><circle cx="107.58713473346108" cy="87.02644522837105" r="2" style="fill: black; stroke: none"></circle><circle cx="108.94071095083379" cy="112.60047100648353" r="2" style="fill: black; stroke: none"></circle><circle cx="115.2941742300074" cy="95.96933594818888" r="2" style="fill: black; stroke: none"></circle><circle cx="115.39197486225854" cy="104.76601543210444" r="2" style="fill: black; stroke: none"></circle><circle cx="83.88417021151157" cy="99.31382244890948" r="2" style="fill: black; stroke: none"></circle><circle cx="84.34164931033888" cy="104.88798731424873" r="2" style="fill: black; stroke: none"></circle><circle cx="99.70572406212659" cy="83.48883403429778" r="2" style="fill: black; stroke: none"></circle><circle cx="89.37604125631198" cy="112.76613193053275" r="2" style="fill: black; stroke: none"></circle><circle cx="104.62441343122772" cy="116.11297116156638" r="2" style="fill: black; stroke: none"></circle><circle cx="115.17426022580521" cy="91.98009038070123" r="2" style="fill: black; stroke: none"></circle><circle cx="91.19128542153447" cy="85.21396416295633" r="2" style="fill: black; stroke: none"></circle><circle cx="105.2144510179296" cy="83.26948434240119" r="2" style="fill: black; stroke: none"></circle><circle cx="83.22132258443804" cy="94.77577995387752" r="2" style="fill: black; stroke: none"></circle><circle cx="97.33595205192212" cy="117.51399716132549" r="2" style="fill: black; stroke: none"></circle><circle cx="114.51156549263732" cy="110.55241965877627" r="2" style="fill: black; stroke: none"></circle><circle cx="86.68029638787225" cy="87.8385614992518" r="2" style="fill: black; stroke: none"></circle><circle cx="118.0313759481458" cy="98.91877086017314" r="2" style="fill: black; stroke: none"></circle><circle cx="84.83471055685787" cy="110.03447131820995" r="2" style="fill: black; stroke: none"></circle><circle cx="91.98028440932906" cy="117.23192940112743" r="2" style="fill: black; stroke: none"></circle><circle cx="109.90339954072341" cy="83.67902175157764" r="2" style="fill: black; stroke: none"></circle><circle cx="109.93748105833903" cy="116.52522835520864" r="2" style="fill: black; stroke: none"></circle><circle cx="80.85584932276146" cy="102.36977745974785" r="2" style="fill: black; stroke: none"></circle><circle cx="114.66442389930636" cy="87.43700034399922" r="2" style="fill: black; stroke: none"></circle><circle cx="94.69531107384606" cy="80.79169413603961" r="2" style="fill: black; stroke: none"></circle><circle cx="119.56459535023345" cy="104.6991680892485" r="2" style="fill: black; stroke: none"></circle><circle cx="85.42127736874565" cy="114.31440414136446" r="2" style="fill: black; stroke: none"></circle><circle cx="79.71415800963533" cy="97.13358982914713" r="2" style="fill: black; stroke: none"></circle><circle cx="81.85145686280393" cy="90.30562372787816" r="2" style="fill: black; stroke: none"></circle><circle cx="106.6183712928596" cy="119.89216904411401" r="2" style="fill: black; stroke: none"></circle><circle cx="119.69183692028666" cy="92.66152261540186" r="2" style="fill: black; stroke: none"></circle><circle cx="101.78337546030751" cy="121.22604956059881" r="2" style="fill: black; stroke: none"></circle><circle cx="89.5989305344997" cy="80.8809597298166" r="2" style="fill: black; stroke: none"></circle><circle cx="107.14271798731083" cy="79.39261717514701" r="2" style="fill: black; stroke: none"></circle><circle cx="97.12722774295683" cy="121.79654461375466" r="2" style="fill: black; stroke: none"></circle><circle cx="122.1472422382975" cy="100.05885036738418" r="2" style="fill: black; stroke: none"></circle><circle cx="118.8319004037507" cy="111.97127024619553" r="2" style="fill: black; stroke: none"></circle><circle cx="84.12893137785527" cy="83.7576110505823" r="2" style="fill: black; stroke: none"></circle><circle cx="98.44723730504693" cy="77.33657466403443" r="2" style="fill: black; stroke: none"></circle><circle cx="116.15183992303744" cy="115.9865659301355" r="2" style="fill: black; stroke: none"></circle><circle cx="87.72011044014609" cy="119.20202082797888" r="2" style="fill: black; stroke: none"></circle><circle cx="77.79003460107027" cy="105.93422541596063" r="2" style="fill: black; stroke: none"></circle><circle cx="79.44214891011039" cy="110.91583821992133" r="2" style="fill: black; stroke: none"></circle><circle cx="118.83061755100061" cy="85.82676482297182" r="2" style="fill: black; stroke: none"></circle><circle cx="92.26436547619066" cy="122.3747254698263" r="2" style="fill: black; stroke: none"></circle><circle cx="76.09930089214414" cy="100.06520526053775" r="2" style="fill: black; stroke: none"></circle><circle cx="113.53893080495058" cy="80.00787488213967" r="2" style="fill: black; stroke: none"></circle><circle cx="110.98638128262832" cy="121.62158947764033" r="2" style="fill: black; stroke: none"></circle><circle cx="123.82334702800468" cy="95.34310733731748" r="2" style="fill: black; stroke: none"></circle><circle cx="93.64933488163287" cy="76.40260407176565" r="2" style="fill: black; stroke: none"></circle><circle cx="124.33685470157612" cy="105.14746589034345" r="2" style="fill: black; stroke: none"></circle><circle cx="76.49667676452492" cy="91.57257634681406" r="2" style="fill: black; stroke: none"></circle><circle cx="82.45350726170098" cy="118.05545792263277" r="2" style="fill: black; stroke: none"></circle><circle cx="78.76668180922483" cy="86.32175729966764" r="2" style="fill: black; stroke: none"></circle><circle cx="122.95562356412626" cy="89.30437717981121" r="2" style="fill: black; stroke: none"></circle><circle cx="103.62954064476011" cy="74.52337373779785" r="2" style="fill: black; stroke: none"></circle><circle cx="100.81032122654105" cy="125.95590694802388" r="2" style="fill: black; stroke: none"></circle><circle cx="107.1206914910995" cy="125.27684284047189" r="2" style="fill: black; stroke: none"></circle><circle cx="85.4542796575587" cy="78.02357074399895" r="2" style="fill: black; stroke: none"></circle><circle cx="123.94133021173526" cy="111.68659387628479" r="2" style="fill: black; stroke: none"></circle><circle cx="116.3407555348245" cy="121.42313079323984" r="2" style="fill: black; stroke: none"></circle><circle cx="127.00492293575249" cy="100.42594181826898" r="2" style="fill: black; stroke: none"></circle><circle cx="110.514688611192" cy="74.90583557779813" r="2" style="fill: black; stroke: none"></circle><circle cx="80.17158945242345" cy="80.89008362793658" r="2" style="fill: black; stroke: none"></circle><circle cx="84.66274511058538" cy="122.9755288326581" r="2" style="fill: black; stroke: none"></circle><circle cx="72.80612418551462" cy="105.74968766569275" r="2" style="fill: black; stroke: none"></circle><circle cx="119.01522161974354" cy="79.46461536073815" r="2" style="fill: black; stroke: none"></circle><circle cx="98.45734361464721" cy="71.9435460799939" r="2" style="fill: black; stroke: none"></circle><circle cx="75.58141973198505" cy="114.09244486900994" r="2" style="fill: black; stroke: none"></circle><circle cx="94.75440997796285" cy="127.83593775284159" r="2" style="fill: black; stroke: none"></circle><circle cx="123.69036716166019" cy="84.01713856947237" r="2" style="fill: black; stroke: none"></circle><circle cx="71.50960926062125" cy="96.9485270822162" r="2" style="fill: black; stroke: none"></circle><circle cx="89.17950457362727" cy="126.67421994514119" r="2" style="fill: black; stroke: none"></circle><circle cx="89.43033473738737" cy="73.17601861984807" r="2" style="fill: black; stroke: none"></circle><circle cx="121.71148088563912" cy="119.04590019000547" r="2" style="fill: black; stroke: none"></circle><circle cx="128.6235467254709" cy="93.60338997958833" r="2" style="fill: black; stroke: none"></circle><circle cx="129.46024662752333" cy="106.55411675489113" r="2" style="fill: black; stroke: none"></circle><circle cx="72.1981618790301" cy="87.84051338494221" r="2" style="fill: black; stroke: none"></circle><circle cx="116.58530336921675" cy="74.4842929623012" r="2" style="fill: black; stroke: none"></circle><circle cx="105.05678006903818" cy="130.16619968226775" r="2" style="fill: black; stroke: none"></circle><circle cx="74.7034394275109" cy="82.14022434043665" r="2" style="fill: black; stroke: none"></circle><circle cx="114.5935484633835" cy="127.34442295948519" r="2" style="fill: black; stroke: none"></circle><circle cx="77.69830101456651" cy="121.62631873687666" r="2" style="fill: black; stroke: none"></circle><circle cx="128.8366465892123" cy="86.41979393913168" r="2" style="fill: black; stroke: none"></circle><circle cx="129.35780989503985" cy="112.66898476115155" r="2" style="fill: black; stroke: none"></circle><circle cx="80.29918413341844" cy="74.58962506013773" r="2" style="fill: black; stroke: none"></circle><circle cx="69.3045136683427" cy="110.00055763325216" r="2" style="fill: black; stroke: none"></circle><circle cx="93.6862986241415" cy="68.20090350597796" r="2" style="fill: black; stroke: none"></circle><circle cx="106.94662442360843" cy="68.1509190361699" r="2" style="fill: black; stroke: none"></circle><circle cx="67.56794085671649" cy="103.41237213356682" r="2" style="fill: black; stroke: none"></circle><circle cx="83.40026126886013" cy="128.35846909837423" r="2" style="fill: black; stroke: none"></circle><circle cx="67.94768363324162" cy="92.29895536134758" r="2" style="fill: black; stroke: none"></circle><circle cx="132.93561871804144" cy="97.54106756694425" r="2" style="fill: black; stroke: none"></circle><circle cx="123.3074504158333" cy="75.92189492881968" r="2" style="fill: black; stroke: none"></circle><circle cx="121.03953148978096" cy="126.16843524172971" r="2" style="fill: black; stroke: none"></circle><circle cx="128.08637738257417" cy="118.92195592883792" r="2" style="fill: black; stroke: none"></circle><circle cx="92.5817609339648" cy="133.0537831162455" r="2" style="fill: black; stroke: none"></circle><circle cx="100.21622124698295" cy="133.91206340851102" r="2" style="fill: black; stroke: none"></circle><circle cx="70.32428951125782" cy="116.8577632729365" r="2" style="fill: black; stroke: none"></circle><circle cx="113.22162294967035" cy="68.50738355228589" r="2" style="fill: black; stroke: none"></circle><circle cx="99.70696402007594" cy="65.83094794318592" r="2" style="fill: black; stroke: none"></circle><circle cx="86.04478107329668" cy="68.65213317582418" r="2" style="fill: black; stroke: none"></circle><circle cx="109.90858240531232" cy="133.88228262013646" r="2" style="fill: black; stroke: none"></circle><circle cx="134.39091314896933" cy="91.53943307890304" r="2" style="fill: black; stroke: none"></circle><circle cx="135.33705572313545" cy="104.88956374250557" r="2" style="fill: black; stroke: none"></circle><circle cx="73.0864939070562" cy="76.03020957166603" r="2" style="fill: black; stroke: none"></circle><circle cx="129.8780648033677" cy="79.66981969345737" r="2" style="fill: black; stroke: none"></circle><circle cx="119.59224203416528" cy="69.28532602683913" r="2" style="fill: black; stroke: none"></circle><circle cx="63.60804994465137" cy="97.14616734035933" r="2" style="fill: black; stroke: none"></circle><circle cx="76.65896494415807" cy="128.36883134058735" r="2" style="fill: black; stroke: none"></circle><circle cx="67.12191246896795" cy="82.91703374272998" r="2" style="fill: black; stroke: none"></circle><circle cx="117.12606303612549" cy="133.0144327041459" r="2" style="fill: black; stroke: none"></circle><circle cx="63.36826336654553" cy="108.15641506046494" r="2" style="fill: black; stroke: none"></circle><circle cx="70.3004251943421" cy="123.15932730777419" r="2" style="fill: black; stroke: none"></circle><circle cx="135.32762890928953" cy="113.56848772815178" r="2" style="fill: black; stroke: none"></circle><circle cx="134.7390721631489" cy="84.39476891381608" r="2" style="fill: black; stroke: none"></circle><circle cx="77.35021854506347" cy="69.02684176278736" r="2" style="fill: black; stroke: none"></circle><circle cx="94.6200589761208" cy="61.936809855172825" r="2" style="fill: black; stroke: none"></circle><circle cx="83.27436926964428" cy="134.66106259759255" r="2" style="fill: black; stroke: none"></circle><circle cx="105.59142261657686" cy="61.92061683065737" r="2" style="fill: black; stroke: none"></circle><circle cx="127.99748740420962" cy="126.86322883301098" r="2" style="fill: black; stroke: none"></circle><circle cx="95.18302593783" cy="138.83911541971418" r="2" style="fill: black; stroke: none"></circle><circle cx="105.46005348286039" cy="138.85635563251452" r="2" style="fill: black; stroke: none"></circle><circle cx="64.01627058707535" cy="115.66724893262523" r="2" style="fill: black; stroke: none"></circle><circle cx="139.2410460440095" cy="98.90201284851933" r="2" style="fill: black; stroke: none"></circle><circle cx="62.510224517463776" cy="88.07752734522758" r="2" style="fill: black; stroke: none"></circle><circle cx="128.49910832707047" cy="72.47294056277353" r="2" style="fill: black; stroke: none"></circle><circle cx="112.86224831773508" cy="62.08609381648211" r="2" style="fill: black; stroke: none"></circle><circle cx="59.37042393675882" cy="102.52823817597638" r="2" style="fill: black; stroke: none"></circle><circle cx="124.15807717042067" cy="133.03685964823833" r="2" style="fill: black; stroke: none"></circle><circle cx="134.073356129601" cy="123.13582050695405" r="2" style="fill: black; stroke: none"></circle><circle cx="81.90287874891919" cy="62.97193964986509" r="2" style="fill: black; stroke: none"></circle><circle cx="65.86076006041685" cy="76.28709814672703" r="2" style="fill: black; stroke: none"></circle><circle cx="140.72370774276806" cy="89.71446286245146" r="2" style="fill: black; stroke: none"></circle><circle cx="141.0941758993767" cy="108.85352376527955" r="2" style="fill: black; stroke: none"></circle><circle cx="112.34015643250348" cy="140.22756812765576" r="2" style="fill: black; stroke: none"></circle><circle cx="76.32923106481387" cy="135.16227072023054" r="2" style="fill: black; stroke: none"></circle><circle cx="120.71832382024117" cy="62.592368439993606" r="2" style="fill: black; stroke: none"></circle><circle cx="87.85930713852366" cy="141.1751392881781" r="2" style="fill: black; stroke: none"></circle><circle cx="69.69254328084634" cy="69.15977488504126" r="2" style="fill: black; stroke: none"></circle><circle cx="57.09668411742301" cy="94.29754533289112" r="2" style="fill: black; stroke: none"></circle><circle cx="136.71416406433698" cy="77.01254984869412" r="2" style="fill: black; stroke: none"></circle><circle cx="99.02425078024947" cy="56.452187182729176" r="2" style="fill: black; stroke: none"></circle><circle cx="88.49422175706019" cy="57.76626858928997" r="2" style="fill: black; stroke: none"></circle><circle cx="68.03516567372701" cy="130.4351427649317" r="2" style="fill: black; stroke: none"></circle><circle cx="62.359135673419594" cy="123.11965514665705" r="2" style="fill: black; stroke: none"></circle><circle cx="100.6866588605716" cy="144.23751982716857" r="2" style="fill: black; stroke: none"></circle><circle cx="120.10718928747319" cy="140.1358486780099" r="2" style="fill: black; stroke: none"></circle><circle cx="59.22355651707007" cy="81.139516063177" r="2" style="fill: black; stroke: none"></circle><circle cx="141.46798088250057" cy="117.56487823944275" r="2" style="fill: black; stroke: none"></circle><circle cx="56.46041876115668" cy="112.08407974502217" r="2" style="fill: black; stroke: none"></circle><circle cx="109.16099853013365" cy="55.7140080207944" r="2" style="fill: black; stroke: none"></circle><circle cx="73.78350930061661" cy="62.739880583708384" r="2" style="fill: black; stroke: none"></circle><circle cx="132.87220314587256" cy="131.75860515208134" r="2" style="fill: black; stroke: none"></circle><circle cx="145.55535668872596" cy="95.57500747405598" r="2" style="fill: black; stroke: none"></circle><circle cx="142.29530311757642" cy="82.14103958346159" r="2" style="fill: black; stroke: none"></circle><circle cx="129.75813197037542" cy="64.8250956475042" r="2" style="fill: black; stroke: none"></circle><circle cx="79.71977644503016" cy="142.12683790007773" r="2" style="fill: black; stroke: none"></circle><circle cx="108.13385655601029" cy="146.32182348818193" r="2" style="fill: black; stroke: none"></circle><circle cx="136.1553685708442" cy="69.42926624207047" r="2" style="fill: black; stroke: none"></circle><circle cx="147.31919729051887" cy="104.50059546970563" r="2" style="fill: black; stroke: none"></circle><circle cx="54.057625431252966" cy="87.14942795397927" r="2" style="fill: black; stroke: none"></circle><circle cx="117.22404680236711" cy="55.25752669925399" r="2" style="fill: black; stroke: none"></circle><circle cx="80.41820439318062" cy="55.97028458449744" r="2" style="fill: black; stroke: none"></circle><circle cx="91.84614292934019" cy="147.66006858569048" r="2" style="fill: black; stroke: none"></circle><circle cx="140.49409238757983" cy="126.54473476969943" r="2" style="fill: black; stroke: none"></circle><circle cx="61.483295704773134" cy="70.1344888548624" r="2" style="fill: black; stroke: none"></circle><circle cx="51.124014778625096" cy="100.49491397953862" r="2" style="fill: black; stroke: none"></circle><circle cx="92.69768069393987" cy="51.58592743125969" r="2" style="fill: black; stroke: none"></circle><circle cx="129.48996829553866" cy="139.7819444942143" r="2" style="fill: black; stroke: none"></circle><circle cx="68.77633106247588" cy="138.9353422193153" r="2" style="fill: black; stroke: none"></circle><circle cx="53.867738690029476" cy="119.67047657260412" r="2" style="fill: black; stroke: none"></circle><circle cx="148.86888294699204" cy="88.48545861490764" r="2" style="fill: black; stroke: none"></circle><circle cx="116.38915727563104" cy="147.52949297597445" r="2" style="fill: black; stroke: none"></circle><circle cx="148.66223897107417" cy="113.10630298719988" r="2" style="fill: black; stroke: none"></circle><circle cx="102.4983242765324" cy="49.442373771650104" r="2" style="fill: black; stroke: none"></circle><circle cx="127.00586259389645" cy="56.79183838701574" r="2" style="fill: black; stroke: none"></circle><circle cx="59.84820150919725" cy="131.50123603424106" r="2" style="fill: black; stroke: none"></circle><circle cx="49.52423882630927" cy="108.64831135484714" r="2" style="fill: black; stroke: none"></circle><circle cx="65.7482825784481" cy="61.52176968580254" r="2" style="fill: black; stroke: none"></circle><circle cx="53.702203733639564" cy="75.01452600905752" r="2" style="fill: black; stroke: none"></circle><circle cx="100.89990426466069" cy="152.71915713160632" r="2" style="fill: black; stroke: none"></circle><circle cx="72.09732112474825" cy="54.9662301431777" r="2" style="fill: black; stroke: none"></circle><circle cx="111.12143557930546" cy="48.17758045778302" r="2" style="fill: black; stroke: none"></circle><circle cx="153.09077233361666" cy="97.81035995519136" r="2" style="fill: black; stroke: none"></circle><circle cx="140.09392472720046" cy="134.98083487863065" r="2" style="fill: black; stroke: none"></circle><circle cx="47.14456504335751" cy="92.2598378485302" r="2" style="fill: black; stroke: none"></circle><circle cx="146.257496988724" cy="73.0453977168646" r="2" style="fill: black; stroke: none"></circle><circle cx="149.27041150714163" cy="121.72762135512049" r="2" style="fill: black; stroke: none"></circle><circle cx="83.66312292843708" cy="151.3891128129924" r="2" style="fill: black; stroke: none"></circle><circle cx="125.96391220660973" cy="147.37417517346555" r="2" style="fill: black; stroke: none"></circle><circle cx="72.26093434941674" cy="146.52541496036758" r="2" style="fill: black; stroke: none"></circle><circle cx="137.66270947191924" cy="61.03581631396331" r="2" style="fill: black; stroke: none"></circle><circle cx="82.35364425275135" cy="48.06688668252814" r="2" style="fill: black; stroke: none"></circle><circle cx="47.727656911539526" cy="82.27134837503655" r="2" style="fill: black; stroke: none"></circle><circle cx="110.99039460611793" cy="154.65865451074438" r="2" style="fill: black; stroke: none"></circle><circle cx="123.04427366971736" cy="48.963469288967396" r="2" style="fill: black; stroke: none"></circle><circle cx="51.58991160095183" cy="128.31438686854918" r="2" style="fill: black; stroke: none"></circle><circle cx="152.5873300500892" cy="79.5843931688258" r="2" style="fill: black; stroke: none"></circle><circle cx="94.6597775589467" cy="43.682203457767564" r="2" style="fill: black; stroke: none"></circle><circle cx="92.21132103087497" cy="156.1149240923524" r="2" style="fill: black; stroke: none"></circle><circle cx="55.69171677288234" cy="64.40447862224899" r="2" style="fill: black; stroke: none"></circle><circle cx="156.33257839475078" cy="108.38857541083979" r="2" style="fill: black; stroke: none"></circle><circle cx="42.95674018644971" cy="103.02407225400248" r="2" style="fill: black; stroke: none"></circle><circle cx="59.99573977842856" cy="141.2177120649008" r="2" style="fill: black; stroke: none"></circle><circle cx="135.7005392561927" cy="145.37133051287066" r="2" style="fill: black; stroke: none"></circle><circle cx="148.32360279600843" cy="131.78961617503907" r="2" style="fill: black; stroke: none"></circle><circle cx="45.43298168324841" cy="119.45286149810248" r="2" style="fill: black; stroke: none"></circle><circle cx="157.16255869195183" cy="88.88793077505288" r="2" style="fill: black; stroke: none"></circle><circle cx="120.7657342792064" cy="154.7523613107539" r="2" style="fill: black; stroke: none"></circle><circle cx="133.9068013850755" cy="51.88966914115927" r="2" style="fill: black; stroke: none"></circle><circle cx="147.65659331103058" cy="64.00077407541596" r="2" style="fill: black; stroke: none"></circle><circle cx="63.39333229803288" cy="52.78301788906117" r="2" style="fill: black; stroke: none"></circle><circle cx="106.33742999350606" cy="40.41288763877293" r="2" style="fill: black; stroke: none"></circle><circle cx="73.77635956408967" cy="45.00606830259062" r="2" style="fill: black; stroke: none"></circle><circle cx="47.17596067422094" cy="69.30953359775842" r="2" style="fill: black; stroke: none"></circle><circle cx="99.8235049131669" cy="161.38760824491828" r="2" style="fill: black; stroke: none"></circle><circle cx="158.52656716044936" cy="118.62628470990369" r="2" style="fill: black; stroke: none"></circle><circle cx="72.69602852324772" cy="155.30966654850226" r="2" style="fill: black; stroke: none"></circle><circle cx="115.94734402031182" cy="40.41353690179588" r="2" style="fill: black; stroke: none"></circle><circle cx="144.756050084503" cy="142.6318422973395" r="2" style="fill: black; stroke: none"></circle><circle cx="38.89197261926816" cy="89.5053666972051" r="2" style="fill: black; stroke: none"></circle><circle cx="51.065621140637084" cy="138.26313610537278" r="2" style="fill: black; stroke: none"></circle><circle cx="86.70054038864765" cy="39.025351713573706" r="2" style="fill: black; stroke: none"></circle><circle cx="38.563650695095355" cy="112.05065230709404" r="2" style="fill: black; stroke: none"></circle><circle cx="63.64916439404262" cy="151.071396097481" r="2" style="fill: black; stroke: none"></circle><circle cx="155.65000853042645" cy="70.78886069841414" r="2" style="fill: black; stroke: none"></circle><circle cx="131.3664105761016" cy="154.66120741991278" r="2" style="fill: black; stroke: none"></circle><circle cx="163.1678557542792" cy="97.58423178048135" r="2" style="fill: black; stroke: none"></circle><circle cx="143.49393632015494" cy="54.068641907458435" r="2" style="fill: black; stroke: none"></circle><circle cx="80.95480110663249" cy="160.89415196451617" r="2" style="fill: black; stroke: none"></circle><circle cx="157.40653519398566" cy="128.5210213248688" r="2" style="fill: black; stroke: none"></circle><circle cx="39.906165966831985" cy="77.12903539525347" r="2" style="fill: black; stroke: none"></circle><circle cx="109.41278818570535" cy="163.82015589894493" r="2" style="fill: black; stroke: none"></circle><circle cx="42.03813402648251" cy="128.74149666277333" r="2" style="fill: black; stroke: none"></circle><circle cx="128.72586211531006" cy="41.9031214251478" r="2" style="fill: black; stroke: none"></circle><circle cx="53.43884891897191" cy="54.76335475786846" r="2" style="fill: black; stroke: none"></circle><circle cx="34.288020957698095" cy="99.99488271045922" r="2" style="fill: black; stroke: none"></circle><circle cx="163.15729849367355" cy="81.73385931954135" r="2" style="fill: black; stroke: none"></circle><circle cx="97.17070186040684" cy="34.202121387268434" r="2" style="fill: black; stroke: none"></circle><circle cx="90.5881856375685" cy="165.19979139294446" r="2" style="fill: black; stroke: none"></circle><circle cx="165.881931420228" cy="107.54612431475023" r="2" style="fill: black; stroke: none"></circle><circle cx="154.15989391323623" cy="139.11206441002278" r="2" style="fill: black; stroke: none"></circle><circle cx="119.83782256230151" cy="164.1028952745139" r="2" style="fill: black; stroke: none"></circle><circle cx="53.65907536878139" cy="148.56886723959119" r="2" style="fill: black; stroke: none"></circle><circle cx="63.0756941915966" cy="42.86440965974803" r="2" style="fill: black; stroke: none"></circle><circle cx="35.11102217469742" cy="121.34502709631852" r="2" style="fill: black; stroke: none"></circle><circle cx="142.4405619673087" cy="154.02421890351482" r="2" style="fill: black; stroke: none"></circle><circle cx="110.61478158904234" cy="31.86160126985684" r="2" style="fill: black; stroke: none"></circle><circle cx="43.35677619783738" cy="60.29473449105327" r="2" style="fill: black; stroke: none"></circle><circle cx="154.1975711633277" cy="56.84706259857046" r="2" style="fill: black; stroke: none"></circle><circle cx="76.53323536889833" cy="34.39901307964839" r="2" style="fill: black; stroke: none"></circle><circle cx="140.1186034896661" cy="42.528582645299394" r="2" style="fill: black; stroke: none"></circle><circle cx="31.279101709410373" cy="83.03886000526029" r="2" style="fill: black; stroke: none"></circle><circle cx="170.39270945812376" cy="90.66745966953643" r="2" style="fill: black; stroke: none"></circle><circle cx="168.21318717756066" cy="120.61215188076014" r="2" style="fill: black; stroke: none"></circle><circle cx="130.4051988309424" cy="164.5042824954606" r="2" style="fill: black; stroke: none"></circle><circle cx="70.82457787891445" cy="165.13705432730643" r="2" style="fill: black; stroke: none"></circle><circle cx="41.71328085272612" cy="141.27807002322945" r="2" style="fill: black; stroke: none"></circle><circle cx="98.1532611280873" cy="172.180629499625" r="2" style="fill: black; stroke: none"></circle><circle cx="28.489152495162063" cy="110.74859912229714" r="2" style="fill: black; stroke: none"></circle><circle cx="60.45936568658337" cy="160.88953083419034" r="2" style="fill: black; stroke: none"></circle><circle cx="34.88063681411657" cy="67.6901376412915" r="2" style="fill: black; stroke: none"></circle><circle cx="126.11852761997201" cy="32.00159858571268" r="2" style="fill: black; stroke: none"></circle><circle cx="87.57051256135726" cy="28.10454668033131" r="2" style="fill: black; stroke: none"></circle><circle cx="166.41081024340752" cy="69.16325996246793" r="2" style="fill: black; stroke: none"></circle><circle cx="153.1030069945261" cy="150.54870743906008" r="2" style="fill: black; stroke: none"></circle><circle cx="82.1423859820278" cy="171.72406058997984" r="2" style="fill: black; stroke: none"></circle><circle cx="26.379467402233225" cy="93.41309596810272" r="2" style="fill: black; stroke: none"></circle><circle cx="174.16092193814677" cy="101.41826511587593" r="2" style="fill: black; stroke: none"></circle><circle cx="113.69618819140372" cy="173.0060009349995" r="2" style="fill: black; stroke: none"></circle><circle cx="165.97297279365236" cy="134.88193333323267" r="2" style="fill: black; stroke: none"></circle><circle cx="49.1869914686051" cy="44.86487056982595" r="2" style="fill: black; stroke: none"></circle><circle cx="151.26408393496868" cy="44.961055665433356" r="2" style="fill: black; stroke: none"></circle><circle cx="32.368881972841066" cy="133.21881928676095" r="2" style="fill: black; stroke: none"></circle><circle cx="100.66461992773566" cy="24.43474518856794" r="2" style="fill: black; stroke: none"></circle><circle cx="172.93382680107933" cy="78.5432447450387" r="2" style="fill: black; stroke: none"></circle><circle cx="61.960396919576155" cy="32.37315601473571" r="2" style="fill: black; stroke: none"></circle><circle cx="45.40337651768962" cy="155.2079131572421" r="2" style="fill: black; stroke: none"></circle><circle cx="165.28625628448677" cy="57.91128330482553" r="2" style="fill: black; stroke: none"></circle><circle cx="176.82259501345717" cy="113.4000784530581" r="2" style="fill: black; stroke: none"></circle><circle cx="143.6992148656876" cy="164.81064377420623" r="2" style="fill: black; stroke: none"></circle><circle cx="137.9813738074667" cy="31.560102054645746" r="2" style="fill: black; stroke: none"></circle><circle cx="24.518212210465084" cy="121.2910470631535" r="2" style="fill: black; stroke: none"></circle><circle cx="118.10867984929345" cy="23.52688069881994" r="2" style="fill: black; stroke: none"></circle><circle cx="125.04868729212177" cy="174.7922868715055" r="2" style="fill: black; stroke: none"></circle><circle cx="164.2704321610758" cy="147.05678230286986" r="2" style="fill: black; stroke: none"></circle><circle cx="37.37855511391355" cy="50.264326023520624" r="2" style="fill: black; stroke: none"></circle><circle cx="19.778348415465686" cy="103.46136605168246" r="2" style="fill: black; stroke: none"></circle><circle cx="71.50067058739447" cy="24.81960644828092" r="2" style="fill: black; stroke: none"></circle><circle cx="175.94866560579422" cy="128.50097591531687" r="2" style="fill: black; stroke: none"></circle><circle cx="23.969460054651883" cy="71.55605963517078" r="2" style="fill: black; stroke: none"></circle><circle cx="20.425226404060815" cy="83.84821270858336" r="2" style="fill: black; stroke: none"></circle><circle cx="89.53140502416885" cy="180.69035442154936" r="2" style="fill: black; stroke: none"></circle><circle cx="71.36742291198819" cy="176.51338860960132" r="2" style="fill: black; stroke: none"></circle><circle cx="180.97852791800014" cy="87.41524825361624" r="2" style="fill: black; stroke: none"></circle><circle cx="31.414001653346002" cy="145.00087260255142" r="2" style="fill: black; stroke: none"></circle><circle cx="162.76555222391542" cy="46.440059964215294" r="2" style="fill: black; stroke: none"></circle><circle cx="102.73487482756798" cy="182.7709296043489" r="2" style="fill: black; stroke: none"></circle><circle cx="155.75612069568015" cy="161.51926039451132" r="2" style="fill: black; stroke: none"></circle><circle cx="51.415408946456445" cy="167.5213847055508" r="2" style="fill: black; stroke: none"></circle><circle cx="89.82963790743082" cy="16.90436089862426" r="2" style="fill: black; stroke: none"></circle><circle cx="49.420779754982625" cy="33.25592468024101" r="2" style="fill: black; stroke: none"></circle><circle cx="26.986331731017742" cy="58.79345943075971" r="2" style="fill: black; stroke: none"></circle><circle cx="150.30275843882436" cy="32.78057535267334" r="2" style="fill: black; stroke: none"></circle><circle cx="136.89348152506682" cy="175.82464517907974" r="2" style="fill: black; stroke: none"></circle><circle cx="178.06873165271222" cy="67.57298141221193" r="2" style="fill: black; stroke: none"></circle><circle cx="185.54522868710686" cy="101.18858788850082" r="2" style="fill: black; stroke: none"></circle><circle cx="130.13924309737774" cy="19.305904917139394" r="2" style="fill: black; stroke: none"></circle><circle cx="107.47642690997917" cy="14.151465754552618" r="2" style="fill: black; stroke: none"></circle><circle cx="20.62486181656158" cy="134.4373729552555" r="2" style="fill: black; stroke: none"></circle><circle cx="115.47864705353332" cy="185.14564174515831" r="2" style="fill: black; stroke: none"></circle><circle cx="14.482882057747105" cy="114.38005712958905" r="2" style="fill: black; stroke: none"></circle><circle cx="176.10338597234556" cy="142.195405590049" r="2" style="fill: black; stroke: none"></circle><circle cx="11.857109408206634" cy="93.35975869909991" r="2" style="fill: black; stroke: none"></circle><circle cx="57.827208522704645" cy="178.17500106907116" r="2" style="fill: black; stroke: none"></circle><circle cx="176.69484983074935" cy="55.01163045508659" r="2" style="fill: black; stroke: none"></circle><circle cx="34.42640356547506" cy="160.2159364626337" r="2" style="fill: black; stroke: none"></circle><circle cx="36.69976072793511" cy="37.25751283805878" r="2" style="fill: black; stroke: none"></circle><circle cx="77.5760940653816" cy="13.654940181964559" r="2" style="fill: black; stroke: none"></circle><circle cx="187.37899489853402" cy="118.99310892548888" r="2" style="fill: black; stroke: none"></circle><circle cx="59.87145789705788" cy="19.964703328832776" r="2" style="fill: black; stroke: none"></circle><circle cx="150.6748003518671" cy="174.3534240134926" r="2" style="fill: black; stroke: none"></circle><circle cx="77.7442784108411" cy="187.2389720782636" r="2" style="fill: black; stroke: none"></circle><circle cx="187.38717168891557" cy="76.67950517347668" r="2" style="fill: black; stroke: none"></circle><circle cx="169.97548233975326" cy="157.78739394324134" r="2" style="fill: black; stroke: none"></circle><circle cx="144.23834710438024" cy="20.171493425624586" r="2" style="fill: black; stroke: none"></circle><circle cx="120.17850281652385" cy="10.979120756981441" r="2" style="fill: black; stroke: none"></circle><circle cx="26.07506765358778" cy="45.59817168939946" r="2" style="fill: black; stroke: none"></circle><circle cx="11.368445066177912" cy="75.54295530524138" r="2" style="fill: black; stroke: none"></circle><circle cx="94.63966223357654" cy="192.22989926532344" r="2" style="fill: black; stroke: none"></circle><circle cx="165.0796089988907" cy="33.938549678456575" r="2" style="fill: black; stroke: none"></circle><circle cx="130.0343288273874" cy="187.89557738467633" r="2" style="fill: black; stroke: none"></circle><circle cx="187.8675013250177" cy="132.22877936183568" r="2" style="fill: black; stroke: none"></circle><circle cx="14.397262190440951" cy="61.63703225438872" r="2" style="fill: black; stroke: none"></circle><circle cx="193.18759187461117" cy="88.68423054172705" r="2" style="fill: black; stroke: none"></circle><circle cx="22.104762270105137" cy="153.24442873299097" r="2" style="fill: black; stroke: none"></circle><circle cx="41.597084502660195" cy="175.25104855851475" r="2" style="fill: black; stroke: none"></circle><circle cx="8.707155840620672" cy="127.78256528456234" r="2" style="fill: black; stroke: none"></circle><circle cx="164.462188582774" cy="170.44909478192568" r="2" style="fill: black; stroke: none"></circle><circle cx="93.1541033670112" cy="4.693913940858008" r="2" style="fill: black; stroke: none"></circle><circle cx="4.168910300340967" cy="106.04648067980673" r="2" style="fill: black; stroke: none"></circle><circle cx="64.76969568340836" cy="189.95197437482662" r="2" style="fill: black; stroke: none"></circle><circle cx="40.54444541693518" cy="23.72838681359779" r="2" style="fill: black; stroke: none"></circle><circle cx="144.54332695500506" cy="186.23159328816035" r="2" style="fill: black; stroke: none"></circle><circle cx="189.78152111341652" cy="63.00430743813208" r="2" style="fill: black; stroke: none"></circle><circle cx="197.16021074643305" cy="107.54551053985801" r="2" style="fill: black; stroke: none"></circle><circle cx="158.37238297880006" cy="21.709455910551313" r="2" style="fill: black; stroke: none"></circle><circle cx="177.43665203166023" cy="40.47747666296526" r="2" style="fill: black; stroke: none"></circle><circle cx="65.59683725258554" cy="7.2996100247792794" r="2" style="fill: black; stroke: none"></circle><circle cx="107.48933687142004" cy="1.3516495112685156" r="2" style="fill: black; stroke: none"></circle><circle cx="183.01752807604265" cy="153.9078610060131" r="2" style="fill: black; stroke: none"></circle><circle cx="134.89764273327538" cy="7.297464538111265" r="2" style="fill: black; stroke: none"></circle><circle cx="115.36725074699392" cy="198.19592117731185" r="2" style="fill: black; stroke: none"></circle><circle cx="10.142507456559958" cy="142.76396962450676" r="2" style="fill: black; stroke: none"></circle></svg>